<svg viewBox="0 0 24 24" xmlns="http://www.w3.org/2000/svg"><g fill="none" fill-rule="evenodd" stroke-linecap="round" stroke-linejoin="round" stroke="#ffffff" stroke-width="2" class="stroke-000000"><path d="M17.362 7.593c1.42 1.94 2.637 3.35 2.637 6.226 0 4.477-3.536 8.125-7.902 8.18a3.77 3.77 0 0 1-.197 0c-4.366-.055-7.901-3.703-7.901-8.18 0-.71.09-1.416.266-2.098l.322-1.242a9.082 9.082 0 0 0 1.634 1.066c.593.303.953.387 1.082.25.134-1.568.274-2.869.42-3.903.48-3.408 2.532-5.373 6.154-5.892l-.25.94c-.591 2.217-.474 3.659-.27 4.478.217.879.779 1.719 1.31 1.855 1.185.303 1.885-.528 2.099-2.493l.596.813z"></path><path d="M11.423 12.207c-1.539 1.45-1.855 2.96-.95 4.529.652 1.128 2.143 1.5 3.332.832a1.262 1.262 0 0 0 .054-.031c1.173-.696 1.598-2.17.945-3.301-.28-.485-1.407-1.161-3.38-2.03z"></path></g></svg>