<svg data-name="Layer 1" viewBox="0 0 512 512" xmlns="http://www.w3.org/2000/svg"><path d="M205.25 362.76a50.67 50.67 0 1 0 50.67-50.67 50.72 50.72 0 0 0-50.67 50.67zm85.33 0a34.67 34.67 0 1 1-34.66-34.67 34.7 34.7 0 0 1 34.66 34.67zM380.5 67.45a8 8 0 0 0-7.25-11.37h-64a8 8 0 0 0-7.25 4.63l-46.44 100L210 60.76l-.16-.3c0-.09-.09-.18-.14-.27a4.87 4.87 0 0 0-.27-.45l-.13-.2c-.11-.16-.23-.31-.35-.47l-.11-.13a5.92 5.92 0 0 0-.41-.45.57.57 0 0 0-.11-.11 5.62 5.62 0 0 0-.44-.41l-.14-.11-.45-.34-.2-.13c-.14-.09-.28-.18-.43-.26l-.25-.15-.41-.19-.31-.13a3.25 3.25 0 0 0-.4-.15l-.29-.11-.44-.11-.31-.07-.51-.07H138.67a4.71 4.71 0 0 0-.53 0h-.27l-.47.07-.34.06-.35.09-.44.13-.27.09-.49.2h-.07l-.18.09-.45.23-.3.18-.34.23-.34.25-.26.21-.34.31-.22.22c-.11.11-.21.22-.31.34l-.21.25-.25.33-.21.31-.19.32-.21.37-.14.29-.18.42c0 .1-.07.2-.11.29s-.09.29-.13.44l-.09.33-.09.41-.06.41V64.95c0 .09 0 .31.07.47s0 .23.07.34a2.25 2.25 0 0 0 .09.35 3.17 3.17 0 0 0 .12.44c0 .09.06.18.1.27s.12.33.19.49v.07l83.44 183.32-4.3 30.68a93.15 93.15 0 1 0 89.74-.5l-4.9-30.23zm-66.15 4.63h46.36l-78.66 169.43h-46.36l27-58.1zm-91.12 158.28-72-158.28h46.43l49.06 107.78zm109.85 132.4a77.17 77.17 0 1 1-77.16-77.17 77.24 77.24 0 0 1 77.16 77.17zm-77.16-93.17a92.65 92.65 0 0 0-28.11 4.34l2.3-16.42h50.24L283 273.6a92.58 92.58 0 0 0-27.08-4.01z" fill="#fffcfc" class="fill-000000"></path></svg>