<svg fill="none" viewBox="0 0 24 24" xmlns="http://www.w3.org/2000/svg"><path clip-rule="evenodd" d="M21 9.214V17a1 1 0 0 1-1 1h-.855a1 1 0 0 1-.843-.462l-1.57-2.463a3 3 0 0 0-2.53-1.387H9.798a3 3 0 0 0-2.53 1.386l-1.57 2.464a1 1 0 0 1-.843.462H4a1 1 0 0 1-1-1V9.214a2 2 0 0 1 .777-1.582l1.245-.962A8 8 0 0 1 9.913 5h4.173a8 8 0 0 1 4.892 1.67l1.245.962A2 2 0 0 1 21 9.214zm-20 0A4 4 0 0 1 2.554 6.05L3.8 5.087A10 10 0 0 1 9.913 3h4.173a10 10 0 0 1 6.115 2.087l1.245.962A4 4 0 0 1 23 9.214V17a3 3 0 0 1-3 3h-.855a3 3 0 0 1-2.53-1.387l-1.57-2.463a1 1 0 0 0-.843-.462H9.798a1 1 0 0 0-.843.462l-1.57 2.463A3 3 0 0 1 4.854 20H4a3 3 0 0 1-3-3V9.214zM20 10a1 1 0 1 1-2 0 1 1 0 0 1 2 0zm-3 3a1 1 0 1 1 0-2 1 1 0 0 1 0 2zM7 13a1 1 0 0 1-1-1v-1H5a1 1 0 1 1 0-2h1V8a1 1 0 0 1 2 0v1h1a1 1 0 1 1 0 2H8v1a1 1 0 0 1-1 1z" fill="#ffffff" fill-rule="evenodd" class="fill-000000"></path></svg>